HIERARCHY
ROOT Hips
{
	OFFSET 0.000000 121.760803 0.000000
	CHANNELS 6 Xposition Yposition Zposition Xrotation Yrotation Zrotation 
	JOINT Spine
	{
		OFFSET 0.072000 7.257294 -0.789700
		CHANNELS 3 Xrotation Yrotation Zrotation
		JOINT Spine1
		{
			OFFSET 0.000000 12.508769 -0.658067
			CHANNELS 3 Xrotation Yrotation Zrotation
			JOINT Spine1_split
			{
				OFFSET 0.000000 12.508769 -0.658067
				CHANNELS 3 Xrotation Yrotation Zrotation
				JOINT Spine2
				{
					OFFSET 0.000000 12.508769 -0.658067
					CHANNELS 3 Xrotation Yrotation Zrotation
					JOINT Neck
					{
						OFFSET 0.000000 14.033295 7.520400
						CHANNELS 3 Xrotation Yrotation Zrotation
						JOINT Head
						{
							OFFSET 0.000000 8.198502 5.703100
							CHANNELS 3 Xrotation Yrotation Zrotation
							JOINT HeadTop_End
							{
								OFFSET 0.000000 17.760803 13.332701
								CHANNELS 3 Xrotation Yrotation Zrotation
								End Site
								{
									OFFSET 0.000000 0.000000 0.000000
								}
							}
						}
					}
					JOINT LeftShoulder
					{
						OFFSET 6.292450 5.785301 -0.669000
						CHANNELS 3 Xrotation Yrotation Zrotation
						JOINT LeftShoulder_split
						{
							OFFSET 6.292450 5.785301 -0.669000
							CHANNELS 3 Xrotation Yrotation Zrotation
							JOINT LeftArm
							{
								OFFSET 13.907140 -6.093903 1.965100
								CHANNELS 3 Xrotation Yrotation Zrotation
								JOINT LeftForeArm
								{
									OFFSET 34.140198 0.000000 0.000000
									CHANNELS 3 Xrotation Yrotation Zrotation
									JOINT LeftHand
									{
										OFFSET 40.960209 0.000000 0.000000
										CHANNELS 3 Xrotation Yrotation Zrotation
										JOINT LeftHandThumb1
										{
											OFFSET 10.006996 -7.170425 9.573125
											CHANNELS 3 Xrotation Yrotation Zrotation
											JOINT LeftHandThumb2
											{
												OFFSET 1.835007 -1.059448 1.059443
												CHANNELS 3 Xrotation Yrotation Zrotation
												JOINT LeftHandThumb3
												{
													OFFSET 2.112267 -1.219513 1.219518
													CHANNELS 3 Xrotation Yrotation Zrotation
													JOINT LeftHandThumb4
													{
														OFFSET 4.843811 -2.796570 2.796576
														CHANNELS 3 Xrotation Yrotation Zrotation
														End Site
														{
															OFFSET 0.000000 0.000000 0.000000
														}
													}
												}
											}
										}
										JOINT LeftHandIndex1
										{
											OFFSET 18.389847 -0.922348 4.596882
											CHANNELS 3 Xrotation Yrotation Zrotation
											JOINT LeftHandIndex2
											{
												OFFSET 4.711273 0.000000 0.000000
												CHANNELS 3 Xrotation Yrotation Zrotation
												JOINT LeftHandIndex3
												{
													OFFSET 2.886131 0.000000 0.000000
													CHANNELS 3 Xrotation Yrotation Zrotation
													JOINT LeftHandIndex4
													{
														OFFSET 6.145912 0.000000 0.000000
														CHANNELS 3 Xrotation Yrotation Zrotation
														End Site
														{
															OFFSET 0.000000 0.000000 0.000000
														}
													}
												}
											}
										}
										JOINT LeftHandMiddle1
										{
											OFFSET 18.013008 0.000000 0.000000
											CHANNELS 3 Xrotation Yrotation Zrotation
											JOINT LeftHandMiddle2
											{
												OFFSET 4.946693 0.000000 0.000000
												CHANNELS 3 Xrotation Yrotation Zrotation
												JOINT LeftHandMiddle3
												{
													OFFSET 3.342232 0.000000 0.000000
													CHANNELS 3 Xrotation Yrotation Zrotation
													JOINT LeftHandMiddle4
													{
														OFFSET 4.461754 0.000000 0.000000
														CHANNELS 3 Xrotation Yrotation Zrotation
														End Site
														{
															OFFSET 0.000000 0.000000 0.000000
														}
													}
												}
											}
										}
										JOINT LeftHandRing1
										{
											OFFSET 15.849892 -0.102921 -4.126150
											CHANNELS 3 Xrotation Yrotation Zrotation
											JOINT LeftHandRing2
											{
												OFFSET 3.527054 0.000000 0.000000
												CHANNELS 3 Xrotation Yrotation Zrotation
												JOINT LeftHandRing3
												{
													OFFSET 2.961098 0.000000 0.000000
													CHANNELS 3 Xrotation Yrotation Zrotation
													JOINT LeftHandRing4
													{
														OFFSET 4.927200 0.000000 0.000000
														CHANNELS 3 Xrotation Yrotation Zrotation
														End Site
														{
															OFFSET 0.000000 0.000000 0.000000
														}
													}
												}
											}
										}
										JOINT LeftHandPinky1
										{
											OFFSET 12.791824 -0.832031 -6.799156
											CHANNELS 3 Xrotation Yrotation Zrotation
											JOINT LeftHandPinky2
											{
												OFFSET 3.327133 0.000000 0.000000
												CHANNELS 3 Xrotation Yrotation Zrotation
												JOINT LeftHandPinky3
												{
													OFFSET 3.014900 0.000000 0.000000
													CHANNELS 3 Xrotation Yrotation Zrotation
													JOINT LeftHandPinky4
													{
														OFFSET 5.847786 0.000000 0.000000
														CHANNELS 3 Xrotation Yrotation Zrotation
														End Site
														{
															OFFSET 0.000000 0.000000 0.000000
														}
													}
												}
											}
										}
									}
								}
							}
						}
					}
					JOINT RightShoulder
					{
						OFFSET -6.292450 5.785301 -0.669000
						CHANNELS 3 Xrotation Yrotation Zrotation
						JOINT RightShoulder_split
						{
							OFFSET -6.292450 5.785301 -0.669000
							CHANNELS 3 Xrotation Yrotation Zrotation
							JOINT RightArm
							{
								OFFSET -13.907140 -6.093903 1.965100
								CHANNELS 3 Xrotation Yrotation Zrotation
								JOINT RightForeArm
								{
									OFFSET -34.140198 0.000000 0.000000
									CHANNELS 3 Xrotation Yrotation Zrotation
									JOINT RightHand
									{
										OFFSET -40.960209 0.000000 0.000000
										CHANNELS 3 Xrotation Yrotation Zrotation
										JOINT RightHandThumb1
										{
											OFFSET -10.007050 -7.170456 9.573117
											CHANNELS 3 Xrotation Yrotation Zrotation
											JOINT RightHandThumb2
											{
												OFFSET -1.835007 -1.059448 1.059443
												CHANNELS 3 Xrotation Yrotation Zrotation
												JOINT RightHandThumb3
												{
													OFFSET -2.112267 -1.219513 1.219518
													CHANNELS 3 Xrotation Yrotation Zrotation
													JOINT RightHandThumb4
													{
														OFFSET -4.843834 -2.796585 2.796590
														CHANNELS 3 Xrotation Yrotation Zrotation
														End Site
														{
															OFFSET 0.000000 0.000000 0.000000
														}
													}
												}
											}
										}
										JOINT RightHandIndex1
										{
											OFFSET -18.389870 -0.922424 4.596786
											CHANNELS 3 Xrotation Yrotation Zrotation
											JOINT RightHandIndex2
											{
												OFFSET -4.711273 0.000000 0.000000
												CHANNELS 3 Xrotation Yrotation Zrotation
												JOINT RightHandIndex3
												{
													OFFSET -2.886131 0.000000 0.000000
													CHANNELS 3 Xrotation Yrotation Zrotation
													JOINT RightHandIndex4
													{
														OFFSET -6.145920 0.000000 0.000000
														CHANNELS 3 Xrotation Yrotation Zrotation
														End Site
														{
															OFFSET 0.000000 0.000000 0.000000
														}
													}
												}
											}
										}
										JOINT RightHandMiddle1
										{
											OFFSET -18.013008 0.000000 0.000000
											CHANNELS 3 Xrotation Yrotation Zrotation
											JOINT RightHandMiddle2
											{
												OFFSET -4.946693 0.000000 0.000000
												CHANNELS 3 Xrotation Yrotation Zrotation
												JOINT RightHandMiddle3
												{
													OFFSET -3.342232 0.000000 0.000000
													CHANNELS 3 Xrotation Yrotation Zrotation
													JOINT RightHandMiddle4
													{
														OFFSET -4.461754 0.000000 0.000000
														CHANNELS 3 Xrotation Yrotation Zrotation
														End Site
														{
															OFFSET 0.000000 0.000000 0.000000
														}
													}
												}
											}
										}
										JOINT RightHandRing1
										{
											OFFSET -15.849876 -0.102936 -4.126237
											CHANNELS 3 Xrotation Yrotation Zrotation
											JOINT RightHandRing2
											{
												OFFSET -3.527054 0.000000 0.000000
												CHANNELS 3 Xrotation Yrotation Zrotation
												JOINT RightHandRing3
												{
													OFFSET -2.961098 0.000000 0.000000
													CHANNELS 3 Xrotation Yrotation Zrotation
													JOINT RightHandRing4
													{
														OFFSET -4.927200 0.000000 0.000000
														CHANNELS 3 Xrotation Yrotation Zrotation
														End Site
														{
															OFFSET 0.000000 0.000000 0.000000
														}
													}
												}
											}
										}
										JOINT RightHandPinky1
										{
											OFFSET -12.791786 -0.832077 -6.799222
											CHANNELS 3 Xrotation Yrotation Zrotation
											JOINT RightHandPinky2
											{
												OFFSET -3.327133 0.000000 0.000000
												CHANNELS 3 Xrotation Yrotation Zrotation
												JOINT RightHandPinky3
												{
													OFFSET -3.014900 0.000000 0.000000
													CHANNELS 3 Xrotation Yrotation Zrotation
													JOINT RightHandPinky4
													{
														OFFSET -5.847786 0.000000 0.000000
														CHANNELS 3 Xrotation Yrotation Zrotation
														End Site
														{
															OFFSET 0.000000 0.000000 0.000000
														}
													}
												}
											}
										}
									}
								}
							}
						}
					}
				}
			}
		}
	}
	JOINT LeftUpLeg
	{
		OFFSET 13.026900 -6.336304 -1.092800
		CHANNELS 3 Xrotation Yrotation Zrotation
		JOINT LeftLeg
		{
			OFFSET 0.524474 -46.096886 9.782700
			CHANNELS 3 Xrotation Yrotation Zrotation
			JOINT LeftFoot
			{
				OFFSET -0.524474 -53.427422 -12.948200
				CHANNELS 3 Xrotation Yrotation Zrotation
				JOINT LeftToeBase
				{
					OFFSET 0.192200 -14.009700 16.364100
					CHANNELS 3 Xrotation Yrotation Zrotation
					JOINT LeftToe_End
					{
						OFFSET -1.784700 -0.561700 9.474800
						CHANNELS 3 Xrotation Yrotation Zrotation
						End Site
						{
							OFFSET 0.000000 0.000000 0.000000
						}
					}
				}
			}
		}
	}
	JOINT RightUpLeg
	{
		OFFSET -12.883000 -6.336304 -1.092800
		CHANNELS 3 Xrotation Yrotation Zrotation
		JOINT RightLeg
		{
			OFFSET -0.524587 -46.096825 9.782800
			CHANNELS 3 Xrotation Yrotation Zrotation
			JOINT RightFoot
			{
				OFFSET 0.524587 -53.427383 -12.948300
				CHANNELS 3 Xrotation Yrotation Zrotation
				JOINT RightToeBase
				{
					OFFSET -0.192200 -14.009700 16.364100
					CHANNELS 3 Xrotation Yrotation Zrotation
					JOINT RightToe_End
					{
						OFFSET 1.784700 -0.561700 9.474800
						CHANNELS 3 Xrotation Yrotation Zrotation
						End Site
						{
							OFFSET 0.000000 0.000000 0.000000
						}
					}
				}
			}
		}
	}
}
MOTION
Frames: 4
Frame Time: 0.016667
-0.353052 102.698807 0.942588 -1.737346 -17.110300 -1.982473 3.880874 2.459661 -0.331987 2.929113 2.056185 -0.138334 0.000000 0.000000 0.000000 2.894092 2.112997 -0.161224 1.137079 0.245403 5.249918 -1.998748 7.430611 1.905182 0.000000 0.000000 0.000000 1.375474 -4.867615 21.431204 0.000000 0.000000 0.000000 -66.234264 -43.614846 -65.822021 -0.000002 -37.698399 0.000002 -66.348574 -13.253366 -9.215208 22.600994 -28.107332 -14.151481 29.406840 28.726502 -29.411764 9.113568 14.378718 -9.922570 -0.000001 -0.000001 -0.000000 0.797692 3.221914 -27.804734 0.799559 3.225537 -27.838605 0.202670 1.661529 -13.908054 0.000001 -0.000000 -0.000001 0.796768 3.220230 -27.788701 0.800517 3.227221 -27.854649 0.202643 1.661527 -13.908049 -0.000001 0.000001 0.000002 0.797688 3.221914 -27.804730 0.799570 3.225534 -27.838610 0.202648 1.661530 -13.908053 0.000001 0.000000 -0.000002 2.684957 6.814133 -27.459476 0.809052 -0.835566 -28.291861 0.202627 1.661530 -13.908045 -0.000001 0.000000 0.000000 0.445410 -0.777910 -3.588726 0.000000 0.000000 0.000000 -96.770749 65.301144 91.341807 0.000007 28.227461 0.000003 -31.535694 -1.128085 -3.934971 40.606608 -3.110602 26.124232 -37.849521 -44.265008 -46.874970 -12.282861 -22.415243 -17.633366 0.000003 0.000000 -0.000001 3.635328 -6.110987 61.464456 7.728613 -6.904473 96.464442 2.305161 -5.174786 47.998748 0.000001 -0.000001 -0.000001 3.635328 -6.110994 61.464463 7.728608 -6.904473 96.464428 2.305168 -5.174784 47.998745 0.000004 0.000000 0.000001 3.635328 -6.110986 61.464463 7.728610 -6.904485 96.464435 2.305161 -5.174787 47.998745 -0.000000 -0.000002 0.000002 3.635335 -6.110984 61.464449 7.728611 -6.904472 96.464442 2.305145 -5.174780 47.998741 -0.000002 -0.000001 -0.000002 -38.376678 17.161771 15.203718 48.686275 0.644835 8.295888 -11.310367 0.897099 -7.914001 -0.000048 0.000002 -0.000003 -0.000000 -0.000000 0.000000 -32.774270 -22.302070 -14.899499 47.619037 -2.526177 -10.129529 -15.252164 -1.974257 12.023453 -0.044158 0.000024 0.000003 -0.000000 0.000000 0.000000 
-0.344665 102.718597 0.936301 -1.681678 -17.071255 -2.004890 3.845228 2.440963 -0.343358 2.899332 2.043579 -0.147449 0.000000 0.000000 0.000000 2.864489 2.099782 -0.170384 1.085838 0.256951 5.236187 -1.804761 7.498502 2.008297 -0.000000 0.000000 0.000000 1.287687 -4.591923 21.372333 0.000000 0.000000 0.000000 -66.225938 -43.832777 -66.089573 0.000012 -37.650100 0.000006 -66.346292 -13.265062 -9.206515 22.600980 -28.107328 -14.151468 29.406836 28.726498 -29.411782 9.113585 14.378721 -9.922565 0.000001 0.000000 0.000000 0.797651 3.221948 -27.804720 0.799595 3.225523 -27.838610 0.202674 1.661526 -13.908054 -0.000001 -0.000000 0.000001 0.796755 3.220238 -27.788688 0.800514 3.227219 -27.854645 0.202667 1.661524 -13.908050 -0.000000 -0.000000 0.000001 0.797647 3.221945 -27.804720 0.799589 3.225526 -27.838610 0.202671 1.661527 -13.908047 -0.000001 -0.000000 0.000000 2.684939 6.814145 -27.459476 0.809075 -0.835569 -28.291871 0.202662 1.661527 -13.908044 0.000000 -0.000000 -0.000001 0.432492 -0.830611 -3.627959 0.000000 0.000000 0.000000 -97.091706 65.466175 91.848375 0.000001 28.156135 -0.000001 -31.844637 -1.022889 -3.997955 40.606605 -3.110605 26.124230 -37.849524 -44.265008 -46.874970 -12.282859 -22.415238 -17.633363 -0.000002 -0.000001 -0.000000 3.635329 -6.110990 61.464456 7.728614 -6.904468 96.464435 2.305156 -5.174786 47.998755 0.000001 0.000002 -0.000001 3.635333 -6.110995 61.464463 7.728611 -6.904475 96.464428 2.305170 -5.174786 47.998745 -0.000001 0.000000 0.000000 3.635327 -6.110989 61.464463 7.728607 -6.904487 96.464435 2.305156 -5.174790 47.998745 0.000001 0.000001 0.000001 3.635330 -6.110986 61.464449 7.728611 -6.904472 96.464442 2.305150 -5.174778 47.998745 -0.000003 -0.000001 -0.000000 -38.460423 17.219091 15.172027 48.657352 0.601618 8.421782 -11.284506 0.895283 -7.921907 -0.000048 0.000002 -0.000003 0.000000 -0.000000 0.000000 -32.693845 -22.120625 -14.748175 47.529586 -2.760278 -10.126368 -15.208518 -1.994973 12.143422 -0.042977 0.000005 -0.000004 -0.000000 0.000000 -0.000000 
-0.336650 102.737640 0.925239 -1.628135 -17.028203 -2.021589 3.798800 2.413212 -0.362035 2.860567 2.025402 -0.161203 0.000000 0.000000 0.000000 2.825897 2.080952 -0.184224 1.012361 0.275951 5.218361 -1.628340 7.575834 2.118158 -0.000000 0.000000 -0.000000 1.196434 -4.307695 21.316493 0.000000 0.000000 0.000000 -66.220303 -44.104693 -66.348765 0.000007 -37.562338 0.000006 -66.391338 -13.293671 -9.237436 22.600992 -28.107338 -14.151481 29.406840 28.726492 -29.411768 9.113573 14.378699 -9.922562 -0.000001 0.000002 -0.000001 0.797670 3.221932 -27.804730 0.799605 3.225523 -27.838613 0.202643 1.661532 -13.908047 -0.000001 -0.000000 0.000001 0.796769 3.220225 -27.788700 0.800496 3.227236 -27.854650 0.202651 1.661530 -13.908053 0.000001 0.000000 0.000000 0.797674 3.221928 -27.804734 0.799594 3.225525 -27.838615 0.202660 1.661528 -13.908059 -0.000001 0.000000 -0.000002 2.684951 6.814135 -27.459485 0.809053 -0.835558 -28.291875 0.202672 1.661528 -13.908052 -0.000001 -0.000000 -0.000003 0.420648 -0.879268 -3.679281 0.000000 0.000000 0.000000 -97.395663 65.635345 92.333407 0.000013 28.079217 -0.000004 -32.174849 -0.927883 -4.091889 40.606608 -3.110602 26.124227 -37.849521 -44.265005 -46.874963 -12.282863 -22.415236 -17.633361 -0.000002 0.000001 -0.000000 3.635328 -6.110988 61.464449 7.728612 -6.904469 96.464442 2.305155 -5.174787 47.998745 0.000001 -0.000000 0.000001 3.635334 -6.110993 61.464463 7.728608 -6.904475 96.464428 2.305168 -5.174785 47.998741 0.000001 -0.000004 0.000003 3.635331 -6.110987 61.464463 7.728608 -6.904485 96.464435 2.305156 -5.174787 47.998745 0.000001 -0.000001 0.000001 3.635334 -6.110984 61.464456 7.728614 -6.904473 96.464449 2.305144 -5.174782 47.998745 -0.000003 0.000003 -0.000000 -38.540852 17.277327 15.126099 48.624332 0.562074 8.556859 -11.253219 0.894575 -7.934136 -0.000048 0.000002 -0.000003 0.000000 0.000000 -0.000000 -32.617548 -21.931194 -14.602533 47.443471 -3.011585 -10.122693 -15.163254 -2.014713 12.267132 -0.041693 0.000005 0.000004 -0.000000 0.000000 -0.000000 
-0.328996 102.757057 0.912412 -1.579915 -16.980735 -2.040168 3.750290 2.386801 -0.375903 2.820242 2.007299 -0.173255 0.000000 0.000000 0.000000 2.785801 2.062072 -0.196306 0.943600 0.291475 5.199658 -1.444415 7.647643 2.241822 -0.000001 0.000000 -0.000000 1.103779 -4.021743 21.257210 0.000000 0.000000 0.000000 -66.219189 -44.417010 -66.594727 0.000002 -37.422251 0.000003 -66.480540 -13.341992 -9.321748 22.600992 -28.107357 -14.151495 29.406854 28.726502 -29.411788 9.113573 14.378718 -9.922562 0.000001 -0.000001 -0.000000 0.797676 3.221921 -27.804737 0.799597 3.225524 -27.838613 0.202648 1.661527 -13.908045 -0.000000 -0.000001 -0.000002 0.796777 3.220214 -27.788705 0.800529 3.227214 -27.854649 0.202645 1.661523 -13.908054 -0.000001 -0.000000 -0.000001 0.797682 3.221918 -27.804730 0.799588 3.225525 -27.838615 0.202663 1.661525 -13.908056 -0.000001 0.000000 0.000001 2.684963 6.814117 -27.459488 0.809061 -0.835566 -28.291871 0.202640 1.661528 -13.908044 0.000001 0.000001 0.000002 0.410450 -0.920572 -3.746361 0.000000 0.000000 0.000000 -97.673624 65.806564 92.793386 0.000004 28.006405 -0.000001 -32.526355 -0.855753 -4.208722 40.606605 -3.110603 26.124230 -37.849514 -44.265005 -46.874970 -12.282864 -22.415240 -17.633364 -0.000002 0.000001 0.000000 3.635323 -6.110988 61.464449 7.728611 -6.904471 96.464442 2.305157 -5.174787 47.998751 -0.000001 -0.000004 0.000003 3.635329 -6.110995 61.464463 7.728610 -6.904479 96.464428 2.305163 -5.174785 47.998745 0.000001 -0.000004 0.000002 3.635327 -6.110989 61.464463 7.728607 -6.904486 96.464435 2.305157 -5.174786 47.998748 -0.000001 -0.000002 0.000002 3.635332 -6.110986 61.464449 7.728613 -6.904465 96.464449 2.305154 -5.174782 47.998741 0.000001 -0.000002 0.000001 -38.616203 17.330966 15.081515 48.591294 0.518352 8.685512 -11.220339 0.894801 -7.942786 -0.000048 0.000002 -0.000003 0.000000 0.000000 0.000000 -32.536299 -21.742553 -14.457185 47.356925 -3.268922 -10.118756 -15.117037 -2.035918 12.391468 -0.040242 0.000024 0.000003 -0.000000 0.000000 -0.000000 
